<svg width="233" height="206" viewBox="0 0 233 206" fill="none" xmlns="http://www.w3.org/2000/svg">
<path d="M80.3987 106.163C74.8626 121.35 19.1736 135.523 13.7711 139.917C9.90974 143.059 5.61139 181.937 17.4759 198.806C43.4217 199.685 105.908 202.167 122.158 195.116C122.764 193.212 138.45 181.947 139.374 179.542C143.615 168.501 149.889 153.457 146.093 146.08C145.13 143.05 142.279 137.046 138.584 137.279C134.889 137.511 130.742 141.637 129.131 143.67C127.35 143.99 125.196 144.36 122.824 144.745C115.552 139.717 113.805 108.884 113.84 94.0958C113.84 94.0958 118.637 91.7408 121.71 90.2318C121.601 88.4998 120.556 90.3045 121.42 85.6131C122.284 80.9217 132.494 77.3809 132.494 77.3809C132.494 77.3809 120.584 72.3342 123.541 64.0334C126.71 49.9228 145.506 44.6825 145.506 44.6825C140.512 11.3784 125.324 5.95882 102.23 7.41184C82.3908 8.66009 71.0615 27.9215 71.5379 44.7007C72.1575 66.5261 86.4123 89.6661 80.3987 106.163Z" fill="white"/>
<path d="M211.761 130.355C206.169 133.605 211.238 151.022 211.555 154.712C211.555 154.712 215.897 156.731 221.01 157.595C226.124 158.459 232.519 151.912 227.389 139.225C223.304 129.121 217.112 125.063 212.391 129.676C212.21 129.987 212 130.216 211.761 130.355Z" fill="white"/>
<path d="M174.745 67.1867C172.633 55.7271 154.372 47.4091 145.506 44.6825C145.506 44.6825 126.71 49.9228 123.541 64.0334C120.584 72.3342 132.494 77.3809 132.494 77.3809C132.494 77.3809 137.114 74.5214 144.586 72.5626C148.656 71.4955 150.738 70.1971 155.914 68.3718C160.24 66.8464 170.513 68.7209 174.745 67.1867Z" fill="#FF6908"/>
<path d="M138.584 137.279C142.279 137.046 145.13 143.05 146.093 146.08C149.889 153.457 143.615 168.501 139.374 179.542C146.64 192.725 165.135 196.469 176.032 194.624C186.929 192.779 213.881 181.824 211.555 154.712C211.238 151.022 206.169 133.605 211.761 130.355C211.968 130.111 212.178 129.885 212.391 129.676C215.6 124.183 210.051 93.0463 206.686 77.3487C174.837 77.6072 131.964 83.2233 121.71 90.2318C118.637 91.7408 113.84 94.0958 113.84 94.0958C113.805 108.884 115.552 139.717 122.824 144.745C125.196 144.36 127.35 143.99 129.131 143.67C130.742 141.637 134.889 137.511 138.584 137.279Z" fill="#767676"/>
<path d="M119.053 37.2469C119.361 41.4849 117.589 45.0675 115.094 45.249C112.6 45.4304 110.327 42.142 110.019 37.904C109.711 33.666 111.483 30.0834 113.978 29.9019C116.473 29.7204 118.745 33.0089 119.053 37.2469Z" fill="black"/>
</svg>
