<svg width="271" height="217" viewBox="0 0 271 217" fill="none" xmlns="http://www.w3.org/2000/svg">
<path d="M249.76 126.905C244.169 130.155 249.238 147.572 249.554 151.262C249.554 151.262 253.896 153.28 259.01 154.145C264.123 155.009 270.519 148.462 265.389 135.775C261.304 125.671 255.111 121.613 250.391 126.226C250.209 126.537 250 126.766 249.76 126.905Z" fill="white"/>
<path d="M212.744 63.7366C210.632 52.277 190.374 47.5482 181.508 44.8217C181.508 44.8217 162.712 50.062 159.542 64.1725C156.585 72.4734 168.496 77.5201 168.496 77.5201C168.496 77.5201 175.114 71.0712 182.585 69.1124C186.655 68.0453 188.738 66.747 193.914 64.9217C198.239 63.3963 208.512 65.2707 212.744 63.7366Z" fill="#FF6908"/>
<path d="M174.585 137.418C178.281 137.186 181.131 143.189 182.095 146.22C185.891 153.596 179.617 168.641 175.376 179.681C182.642 192.864 203.135 193.019 214.032 191.174C224.928 189.329 251.881 178.374 249.554 151.262C249.238 147.572 244.169 130.155 249.76 126.905C249.967 126.661 250.177 126.435 250.391 126.226C253.599 120.733 248.051 89.5961 244.685 73.8985C212.836 74.1571 167.966 83.3625 157.712 90.3709C154.638 91.8799 149.842 94.2349 149.842 94.2349C149.806 109.023 151.554 139.856 158.826 144.884C161.198 144.499 163.351 144.129 165.132 143.809C166.744 141.776 170.89 137.651 174.585 137.418Z" fill="#767676"/>
<path d="M116.4 106.302C110.864 121.489 55.8681 136.688 49.7727 140.057C23.2497 147.867 8.99841 149.551 9.50081 162.551C10.0032 175.55 34.8171 198.523 48.5 202.051C68.2222 218.594 138.332 211.282 158.159 195.255C158.765 193.351 174.452 182.086 175.376 179.681C179.617 168.641 185.891 153.596 182.095 146.22C181.131 143.189 178.281 137.186 174.585 137.418C170.89 137.651 166.744 141.776 165.132 143.809C163.351 144.129 161.198 144.499 158.826 144.884C151.554 139.856 149.806 109.023 149.842 94.2349L157.712 90.3709C157.603 88.6389 156.557 90.4436 157.421 85.7522C158.285 81.0608 168.496 77.5201 168.496 77.5201C168.496 77.5201 156.585 72.4734 159.542 64.1725C162.712 50.062 181.508 44.8217 181.508 44.8217C176.514 11.5176 161.325 6.09796 138.231 7.55098C118.392 8.79923 107.063 28.0606 107.539 44.8399C108.159 66.6653 122.414 89.8053 116.4 106.302Z" fill="white"/>
<path d="M157.053 33.7957C157.361 38.0337 155.589 41.6164 153.094 41.7978C150.6 41.9793 148.327 38.6908 148.019 34.4528C147.711 30.2149 149.483 26.6322 151.978 26.4507C154.473 26.2693 156.745 29.5577 157.053 33.7957Z" fill="black"/>
</svg>
